<svg xmlns="http://www.w3.org/2000/svg" version="1.1" xmlns:xlink="http://www.w3.org/1999/xlink" xmlns:svgjs="http://svgjs.dev/svgjs" viewBox="0 0 800 800"><g fill="#d3adf7"><path d="M285 591H335C363 591 385 613 385 641H335C307 641 285 619 285 591Z " transform="matrix(-0.008383493066525895,0.24007183084860398,-0.24007183084860398,-0.008383493066525895,485.69271798002626,540.7401683946975)" opacity="0.37"></path><path d="M616 372H666C694 372 716 394 716 422H666C638 422 616 400 616 372Z " transform="matrix(-0.3597423280856122,0.05055848706693361,-0.05055848706693361,-0.3597423280856122,925.6601098705903,506.14575186341034)" opacity="0.56"></path><path d="M184 633H234C262 633 284 655 284 683H234C206 683 184 661 184 633Z " transform="matrix(-0.008375536841724741,0.23984399438002238,-0.23984399438002238,-0.008375536841724741,393.7772239230183,607.3876085569296)" opacity="0.37"></path><path d="M706 287H756C784 287 806 309 806 337H756C728 337 706 315 706 287Z " transform="matrix(-0.3619237552777993,0.04443864937211491,-0.04443864937211491,-0.3619237552777993,1043.479217594116,391.3245927213546)" opacity="0.56"></path><path d="M195 520H245C273 520 295 542 295 570H245C217 570 195 548 195 520Z " transform="matrix(-0.008375536841724741,0.23984399438002238,-0.23984399438002238,-0.008375536841724741,377.7669834633348,490.8028889556345)" opacity="0.37"></path><path d="M97 359H147C175 359 197 381 197 409H147C119 409 97 387 97 359Z " transform="matrix(-0.13169287318555656,0.24767827189757474,-0.24767827189757474,-0.13169287318555656,261.4673087669455,398.16135733431025)" opacity="0.43"></path><path d="M299 484H349C377 484 399 506 399 534H349C321 534 299 512 299 484Z " transform="matrix(-0.008383493066525895,0.24007183084860398,-0.24007183084860398,-0.008383493066525895,474.12240098215693,429.4821290046989)" opacity="0.37"></path><path d="M375 17H425C453 17 475 39 475 67H425C397 67 375 45 375 17Z " transform="matrix(0.06512498364192192,0.20043409001355073,-0.20043409001355073,0.06512498364192192,405.7401137327523,-45.91973756871978)" opacity="0.32"></path><path d="M481 16H531C559 16 581 38 581 66H531C503 66 481 44 481 16Z " transform="matrix(-0.01264255154268618,0.24123425406764515,-0.24123425406764515,-0.01264255154268618,547.6037992859398,-86.57704429666946)" opacity="0.37"></path><path d="M655 202H705C733 202 755 224 755 252H705C677 252 655 230 655 202Z " transform="matrix(-0.36664776551575046,0.032077522989739544,-0.032077522989739544,-0.36664776551575046,970.7682724072748,287.61438906430897)" opacity="0.56"></path><path d="M511 531H561C589 531 611 553 611 581H561C533 581 511 559 511 531Z " transform="matrix(-0.2896946733896428,0.16058037961753266,-0.16058037961753266,-0.2896946733896428,812.8014028389377,626.9846454392056)" opacity="0.51"></path><path d="M415 93H465C493 93 515 115 515 143H465C437 143 415 121 415 93Z " transform="matrix(-0.025820246042454816,0.24566323114561384,-0.24566323114561384,-0.025820246042454816,505.9946756849239,6.813386550299242)" opacity="0.38"></path><path d="M704 408H754C782 408 804 430 804 458H754C726 458 704 436 704 408Z " transform="matrix(-0.3619237552777993,0.04443864937211491,-0.04443864937211491,-0.3619237552777993,1046.1324466575863,556.2062444087126)" opacity="0.56"></path><path d="M414 456H464C492 456 514 478 514 506H464C436 506 414 484 414 456Z " transform="matrix(-0.1415925941710166,0.24524556707968173,-0.24524556707968173,-0.1415925941710166,647.6620814606786,435.3120946712867)" opacity="0.43"></path><path d="M463 164H513C541 164 563 186 563 214H513C485 214 463 192 463 164Z " transform="matrix(-0.22137808042982823,0.21378232725942264,-0.21378232725942264,-0.22137808042982823,666.9718151125328,121.17012331715372)" opacity="0.47"></path><path d="M56 27H106C134 27 156 49 156 77H106C78 77 56 55 56 27Z " transform="matrix(-0.16201789210673503,0.24020140303815382,-0.24020140303815382,-0.16201789210673503,135.66436952129789,34.96358166750592)" opacity="0.44"></path><path d="M284 23H334C362 23 384 45 384 73H334C306 73 284 51 284 23Z " transform="matrix(0.08669489948460092,0.1777508854586082,-0.1777508854586082,0.08669489948460092,313.5759460741565,-15.530150918435979)" opacity="0.30"></path><path d="M0 525H50C78 525 100 547 100 575H50C22 575 0 553 0 525Z " transform="matrix(-0.3052257288649027,0.14232909483564535,-0.14232909483564535,-0.3052257288649027,143.54228860285008,710.7576961339142)" opacity="0.52"></path><path d="M129 33H179C207 33 229 55 229 83H179C151 83 129 61 129 33Z " transform="matrix(-0.017025931609415568,0.24348216565585412,-0.24348216565585412,-0.017025931609415568,196.16960736612492,15.404196380948214)" opacity="0.37"></path><path d="M425 355H475C503 355 525 377 525 405H475C447 405 425 383 425 355Z " transform="matrix(-0.16707704784585212,0.23861075285341077,-0.23861075285341077,-0.16707704784585212,645.0336838110759,330.1491705760537)" opacity="0.45"></path><path d="M529 94H579C607 94 629 116 629 144H579C551 144 529 122 529 94Z " transform="matrix(-0.17212978393495795,0.23691632258268563,-0.23691632258268563,-0.17212978393495795,706.8561872856802,2.3088935128849926)" opacity="0.45"></path><path d="M546 726H596C624 726 646 748 646 776H596C568 776 546 754 546 726Z " transform="matrix(-0.3239349782189271,0.1179026899093601,-0.1179026899093601,-0.3239349782189271,877.6101671404099,924.0051654564355)" opacity="0.53"></path><path d="M212 111H262C290 111 312 133 312 161H262C234 161 212 139 212 111Z " transform="matrix(0.03862179474918336,0.21903508240205022,-0.21903508240205022,0.03862179474918336,281.6698609823928,73.3602443247739)" opacity="0.34"></path><path d="M202 18H252C280 18 302 40 302 68H252C224 68 202 46 202 18Z " transform="matrix(0.07086797874889186,0.19470817137497037,-0.19470817137497037,0.07086797874889186,242.513720724403,-9.113782272694884)" opacity="0.32"></path><path d="M350 284H400C428 284 450 306 450 334H400C372 334 350 312 350 284Z " transform="matrix(-0.06752150929079458,0.2519937032769793,-0.2519937032769793,-0.06752150929079458,504.8746580289045,229.06666506006383)" opacity="0.40"></path><path d="M703 630H753C781 630 803 652 803 680H753C725 680 703 658 703 630Z " transform="matrix(-0.3619237552777993,0.04443864937211491,-0.04443864937211491,-0.3619237552777993,1054.635903062918,858.5977567297562)" opacity="0.56"></path><path d="M521 320H571C599 320 621 342 621 370H571C543 370 521 348 521 320Z " transform="matrix(-0.3090141272089644,0.13758195359901207,-0.13758195359901207,-0.3090141272089644,794.9128406279777,373.0505783820568)" opacity="0.52"></path><path d="M102 464H152C180 464 202 486 202 514H152C124 514 102 492 102 464Z " transform="matrix(-0.10162675955822102,0.2515350565378517,-0.2515350565378517,-0.10162675955822102,290.44791009985903,500.4621568302166)" opacity="0.41"></path><path d="M383 641H433C461 641 483 663 483 691H433C405 691 383 669 383 641Z " transform="matrix(-0.09161291664405496,0.2517044198099196,-0.2517044198099196,-0.09161291664405496,640.3035365002822,618.0261887072454)" opacity="0.41"></path><path d="M208 731H258C286 731 308 753 308 781H258C230 781 208 759 208 731Z " transform="matrix(1.4517930731032097e-17,0.2370958016815958,-0.2370958016815958,1.4517930731032097e-17,437.2444260712864,694.8292831661482)" opacity="0.36"></path><path d="M602 276H652C680 276 702 298 702 326H652C624 326 602 304 602 276Z " transform="matrix(-0.3597423280856122,0.05055848706693361,-0.05055848706693361,-0.3597423280856122,901.7701025189662,376.31830718612855)" opacity="0.56"></path><path d="M715 143H765C793 143 815 165 815 193H765C737 193 715 171 715 143Z " transform="matrix(-0.3366497024531486,0.0965327487955162,-0.0965327487955162,-0.3366497024531486,1038.7545241743055,150.70959718355908)" opacity="0.54"></path><path d="M-1 319H49C77 319 99 341 99 369H49C21 369 -1 347 -1 319Z " transform="matrix(-0.33408555347348545,0.10214020392894255,-0.10214020392894255,-0.33408555347348545,100.50642227175702,453.9205604023608)" opacity="0.54"></path><path d="M-4 215H46C74 215 96 237 96 265H46C18 265 -4 243 -4 215Z " transform="matrix(-0.33408555347348545,0.10214020392894255,-0.10214020392894255,-0.33408555347348545,85.88158440272656,315.48208345290516)" opacity="0.54"></path><path d="M415 733H465C493 733 515 755 515 783H465C437 783 415 761 415 733Z " transform="matrix(-0.1415925941710166,0.24524556707968173,-0.24524556707968173,-0.1415925941710166,716.7366961359214,751.2879976895786)" opacity="0.43"></path><path d="M324 390H374C402 390 424 412 424 440H374C346 440 324 418 324 390Z " transform="matrix(-0.030332559464654962,0.24703887232728985,-0.24703887232728985,-0.030332559464654962,487.8655092556063,335.1954739274254)" opacity="0.38"></path><path d="M678 727H728C756 727 778 749 778 777H728C700 777 678 755 678 727Z " transform="matrix(-0.36639466298691364,0.03205537938775658,-0.03205537938775658,-0.36639466298691364,1018.8409599540661,1004.1924703718721)" opacity="0.56"></path><path d="M454 254H504C532 254 554 276 554 304H504C476 304 454 282 454 254Z " transform="matrix(-0.22137808042982823,0.21378232725942264,-0.21378232725942264,-0.22137808042982823,675.2198218420124,233.01819150117308)" opacity="0.47"></path><path d="M1 728H51C79 728 101 750 101 778H51C23 778 1 756 1 728Z " transform="matrix(-0.3052257288649027,0.14232909483564535,-0.14232909483564535,-0.3052257288649027,173.740320583351,975.5761899986538)" opacity="0.52"></path><path d="M301 710H351C379 710 401 732 401 760H351C323 760 301 738 301 710Z " transform="matrix(-0.01702714571393408,0.24349952815937412,-0.24349952815937412,-0.01702714571393408,535.948681342731,662.0466177158013)" opacity="0.37"></path></g><g fill="none" stroke-width="3" stroke="#d3adf7"><path d="M96 577H146C174 577 196 599 196 627H146C118 627 96 605 96 577Z " transform="matrix(-0.13169287318555656,0.24767827189757474,-0.24767827189757474,-0.13169287318555656,314.32947916743126,645.1180819606591)" opacity="0.43"></path><path d="M600 614H650C678 614 700 636 700 664H650C622 664 600 642 600 614Z " transform="matrix(-0.3597423280856122,0.05055848706693361,-0.05055848706693361,-0.3597423280856122,916.1393864914187,836.0123310531993)" opacity="0.56"></path><path d="M6 631H56C84 631 106 653 106 681H56C28 681 6 659 6 631Z " transform="matrix(-0.3052257288649027,0.14232909483564535,-0.14232909483564535,-0.3052257288649027,166.4605270286179,848.25764882458)" opacity="0.52"></path><path d="M313 113H363C391 113 413 135 413 163H363C335 163 313 141 313 113Z " transform="matrix(0.038693852821020155,0.21944374403481495,-0.21944374403481495,0.038693852821020155,379.23736810277416,53.0021692260614)" opacity="0.34"></path><path d="M608 485H658C686 485 708 507 708 535H658C630 535 608 513 608 485Z " transform="matrix(-0.3597423280856122,0.05055848706693361,-0.05055848706693361,-0.3597423280856122,920.4952802844689,660.2011028336199)" opacity="0.56"></path><path d="M103 714H153C181 714 203 736 203 764H153C125 764 103 742 103 714Z " transform="matrix(-0.10162675955822102,0.2515350565378517,-0.2515350565378517,-0.10162675955822102,354.43330099388027,775.617311663234)" opacity="0.41"></path><path d="M-16 23H34C62 23 84 45 84 73H34C6 73 -16 51 -16 23Z " transform="matrix(-0.3264133694999943,0.11239313646577076,-0.11239313646577076,-0.3264133694999943,50.492925113356804,59.846475096163516)" opacity="0.53"></path><path d="M701 28H751C779 28 801 50 801 78H751C723 78 701 56 701 28Z " transform="matrix(-0.11634089078730446,0.24949384543162126,-0.24949384543162126,-0.11634089078730446,851.5951827891415,-128.20381070742044)" opacity="0.42"></path><path d="M83 246H133C161 246 183 268 183 296H133C105 296 83 274 83 246Z " transform="matrix(-0.1666487194149334,0.23799903645856324,-0.23799903645856324,-0.1666487194149334,219.66201856245675,284.50793111245804)" opacity="0.44"></path><path d="M-3 121H47C75 121 97 143 97 171H47C19 171 -3 149 -3 121Z " transform="matrix(-0.33039529433079934,0.10735193867074504,-0.10735193867074504,-0.33039529433079934,78.20196187947634,189.1921718547717)" opacity="0.53"></path><path d="M173 292H223C251 292 273 314 273 342H223C195 342 173 320 173 292Z " transform="matrix(-0.017025028643287705,0.24346925263861846,-0.24346925263861846,-0.017025028643287705,303.9763344738951,268.1032907415103)" opacity="0.37"></path><path d="M1 421H51C79 421 101 443 101 471H51C23 471 1 449 1 421Z " transform="matrix(-0.3052257288649027,0.14232909483564535,-0.14232909483564535,-0.3052257288649027,130.04528846880788,574.8718912371287)" opacity="0.52"></path><path d="M204 409H254C282 409 304 431 304 459H254C226 459 204 437 204 409Z " transform="matrix(1.4517930731032097e-17,0.2370958016815958,-0.2370958016815958,1.4517930731032097e-17,356.8995779298126,373.77766637287465)" opacity="0.36"></path><path d="M264 212H314C342 212 364 234 364 262H314C286 262 264 240 264 212Z " transform="matrix(0.004110985752656316,0.23551821603428083,-0.23551821603428083,0.004110985752656316,368.52696767379047,162.0729765418563)" opacity="0.36"></path><path d="M398 549H448C476 549 498 571 498 599H448C420 599 398 577 398 549Z " transform="matrix(-0.11636073180043845,0.249536394621597,-0.249536394621597,-0.11636073180043845,643.363498359393,528.9987552629761)" opacity="0.42"></path><path d="M593 16H643C671 16 693 38 693 66H643C615 66 593 44 593 16Z " transform="matrix(-0.10149408146902056,0.25120666674353526,-0.25120666674353526,-0.10149408146902056,718.5601677210651,-116.36462937586333)" opacity="0.41"></path><path d="M368 190H418C446 190 468 212 468 240H418C390 240 368 218 368 190Z " transform="matrix(-0.09161291664405496,0.2517044198099196,-0.2517044198099196,-0.09161291664405496,510.4106494163477,129.48432959792544)" opacity="0.41"></path><path d="M258 318H308C336 318 358 340 358 368H308C280 368 258 346 258 318Z " transform="matrix(0.004110985752656316,0.23551821603428083,-0.23551821603428083,0.004110985752656316,387.5165644879402,269.05032134828036)" opacity="0.36"></path><path d="M626 106H676C704 106 726 128 726 156H676C648 156 626 134 626 106Z " transform="matrix(-0.2448157923556364,0.1982479197235788,-0.1982479197235788,-0.2448157923556364,867.465953116199,29.055275065449095)" opacity="0.48"></path><path d="M699 523H749C777 523 799 545 799 573H749C721 573 699 551 699 523Z " transform="matrix(-0.3652500872116924,0.03195524198287832,-0.03195524198287832,-0.3652500872116924,1040.083787928175,724.2225715468314)" opacity="0.56"></path><path d="M166 192H216C244 192 266 214 266 242H216C188 242 166 220 166 192Z " transform="matrix(-0.03469345408655161,0.2468567527723762,-0.2468567527723762,-0.03469345408655161,277.0617014343008,171.20742093794843)" opacity="0.38"></path><path d="M93 131H143C171 131 193 153 193 181H143C115 181 93 159 93 131Z " transform="matrix(-0.11628111591997564,0.24936565781496206,-0.24936565781496206,-0.11628111591997564,198.52924219569059,138.48056501597662)" opacity="0.42"></path><path d="M488 636H538C566 636 588 658 588 686H538C510 686 488 664 488 636Z " transform="matrix(-0.2683768463477991,0.18102246858490184,-0.18102246858490184,-0.2683768463477991,802.0425950697361,741.007007337218)" opacity="0.50"></path><path d="M517 423H567C595 423 617 445 617 473H567C539 473 517 451 517 423Z " transform="matrix(-0.3090141272089644,0.13758195359901207,-0.13758195359901207,-0.3090141272089644,803.8477253398402,508.42936129897623)" opacity="0.52"></path><path d="M551 194H601C629 194 651 216 651 244H601C573 244 551 222 551 194Z " transform="matrix(-0.3369532988781173,0.09661980366950884,-0.09661980366950884,-0.3369532988781173,824.6686696293709,234.7242704489329)" opacity="0.54"></path></g></svg>