<svg xmlns="http://www.w3.org/2000/svg" version="1.1" xmlns:xlink="http://www.w3.org/1999/xlink" xmlns:svgjs="http://svgjs.dev/svgjs" viewBox="0 0 800 400"><path d="M169.9551544189453,158.74440002441406C181.26158111572266,158.74440002441406,209.51269897460938,159.65621053059897,225.56053161621094,158.74440002441406C241.6083642578125,157.83258951822916,252.3437946065267,149.33632049560546,248.87892150878906,154.2600860595703C245.41404841105143,159.18385162353516,220.5560466003418,171.65321380615234,208.52017211914062,182.9596405029297C196.48429763793945,194.26606719970704,190.9626259358724,202.570994720459,189.68609619140625,209.86546325683594C188.4095664469401,217.15993179321288,197.3183883158366,217.19281763712564,202.24215698242188,218.83407592773438C207.16592564900716,220.4753342183431,208.6128640238444,220.1255655924479,213.90135192871094,217.93722534179688C219.18983983357748,215.74888509114584,222.41554092407227,212.26606770833334,228.25111389160156,208.07174682617188C234.08668685913085,203.8774259440104,237.31240010579427,202.23318328857422,242.60089111328125,197.30941772460938C247.88938212076823,192.38565216064453,250.79520985921224,188.0508272298177,254.2600860595703,183.85650634765625C257.72496225992836,179.6621854654948,256.9058374532064,181.0582937113444,259.6412658691406,176.68161010742188C262.37669428507485,172.30492650349936,265.3423128255208,166.89087610880534,267.7130126953125,162.3318328857422C270.0837125651042,157.77278966267903,270.2062754313151,155.9013412475586,271.3004455566406,154.2600860595703C272.3946156819662,152.61883087158202,271.6352816772461,149.33631739298502,273.09417724609375,154.2600860595703C274.5530728149414,159.1838547261556,276.4693611653646,171.36323287963867,278.475341796875,178.475341796875C280.4813224283854,185.58745071411133,281.31840057373046,185.40807545979817,282.95965576171875,189.2376708984375C284.60091094970704,193.06726633707683,285.8176439412435,195.48579981486003,286.5470886230469,197.30941772460938C287.27653330485026,199.13303563435872,283.0822186279297,202.7653267923991,286.5470886230469,198.20628356933594C290.01195861816404,193.64724034627278,294.65170603434245,183.64125778198243,303.5874328613281,174.8878936767578C312.5231596883138,166.1345295715332,321.5575593058268,160.44544291178386,330.4932861328125,155.15695190429688C339.4290129597982,149.8684608968099,350.2690618896484,141.76681259155274,347.53363037109375,148.87892150878906C344.7981988525391,155.9910304260254,321.7817501831055,177.55157719930014,317.04034423828125,190.13453674316406C312.298938293457,202.71749628702798,318.5620240275065,205.6562008158366,324.2152404785156,210.7623291015625C329.86845692952477,215.8684573872884,338.82511240641276,215.79372812906902,344.8430480957031,215.24664306640625C350.8609837849935,214.69955800374348,349.79968424479165,212.26606770833334,353.8116455078125,208.07174682617188C357.82360677083335,203.8774259440104,360.92676930745444,204.6487292989095,364.5740051269531,194.61883544921875C368.2212409464518,184.588941599528,370.2899814860026,172.2391700744629,371.7488708496094,158.74440002441406C373.20776021321615,145.24962997436523,373.5724856567383,144.84603314717612,371.7488708496094,128.25111389160156C369.92525604248044,111.65619463602702,366.97459431966143,90.98953309377035,362.7802734375,77.13004302978516C358.58595255533857,63.270552965799965,357.8684498087565,60.63677241007487,351.1210632324219,60.08968734741211C344.37367665608724,59.54260228474935,331.23766021728517,63.862481066385904,329.5964050292969,74.43946075439453C327.9551498413086,85.01644044240315,337.94318501790366,100.25410692850748,343.04931640625,112.10762023925781C348.15544779459634,123.96113355000814,348.50822509765624,125.07623387654623,354.7085266113281,132.7354278564453C360.908828125,140.3946218363444,365.3363265991211,140.47533818562826,373.5426025390625,149.77578735351562C381.7488784790039,159.076236521403,390.5082206217448,172.27504338582358,395.0672607421875,178.475341796875C399.6263008626302,184.67564020792642,390.1285352579753,176.9865478515625,395.964111328125,180.26905822753906C401.7996873982747,183.55156860351562,411.5485779825846,201.548581644694,423.7668151855469,194.61883544921875C435.98505238850913,187.6890892537435,445.1121012369792,158.95366149902344,456.0538024902344,146.18833923339844C466.99550374348956,133.42301696777344,476.1195651245117,128.9207739766439,477.5784606933594,131.83856201171875C479.037356262207,134.7563500467936,468.51718353271485,149.59641209920247,463.22869873046875,160.53811645507812C457.94021392822265,171.47982081095378,454.4873039754232,177.26158411661783,451.56951904296875,185.6502227783203C448.6517341105143,194.0388614400228,447.0553219604492,196.8699508666992,448.8789367675781,201.79371643066406C450.70255157470706,206.7174819946289,454.15545532226565,213.33033635457357,460.5381164550781,209.86546325683594C466.9207775878906,206.4005901590983,475.1629420979818,195.1479731241862,480.2690734863281,184.75335693359375C485.37520487467447,174.3587407430013,484.5560679117838,167.13303868611655,485.6502380371094,158.74440002441406C486.7444081624349,150.35576136271158,484.5560679117838,137.84454360961914,485.6502380371094,143.4977569580078C486.7444081624349,149.1509703063965,489.9372324625651,173.23468129475913,491.0314025878906,186.54708862304688C492.1255727132162,199.85949595133462,491.0314025878906,201.49178141276042,491.0314025878906,208.96861267089844C491.0314025878906,216.44544392903646,491.21376841227215,216.38864369710288,491.0314025878906,223.31838989257812C490.8490367635091,230.24813608805337,491.0463319905599,235.02541534423827,490.134521484375,243.04933166503906C489.2227109781901,251.07324798583986,489.6472393798828,255.30344528198242,486.5470886230469,262.7802734375C483.44693786621093,270.2571015930176,483.6412394205729,274.3497670491536,474.88787841796875,279.82061767578125C466.1345174153646,285.2914683024089,452.06877360026044,289.1390111287435,443.4977722167969,289.68609619140625C434.9267708333333,290.233181254069,432.91777842203777,289.44094614664715,432.73541259765625,282.5111999511719C432.55304677327473,275.5814537556966,437.859485168457,263.81165313720703,442.60089111328125,255.60537719726562C447.3422970581055,247.39910125732422,450.58295186360675,247.2585941060384,456.0538024902344,242.1524658203125C461.524653116862,237.0463375345866,462.5769676717122,235.0523140970866,469.5067138671875,230.49327087402344C476.4364600626628,225.93422765096028,481.9282393391927,225.01943277994792,490.134521484375,219.73094177246094C498.3408036295573,214.44245076497396,503.6651770019531,210.6845971171061,509.865478515625,204.4842987060547C516.0657800292969,198.28400029500327,515.5216762288411,197.0792244974772,520.6278076171875,189.2376708984375C525.7339390055339,181.3961172993978,528.4125793457031,178.31988093058268,534.9776000976562,165.91928100585938C541.5426208496094,153.51868108113607,547.0792250569662,141.38115849812826,552.914794921875,128.25111389160156C558.7503647867838,115.12106928507487,560.2122540283203,113.92824913024903,563.6771240234375,101.34529113769531C567.1419940185547,88.7623331451416,572.5081986490885,77.67414140065512,569.9551391601562,66.36771392822266C567.402079671224,55.0612864557902,556.409584757487,50.48131529490153,551.12109375,45.73991012573242C545.832602742513,40.998504956563316,544.4932582600911,36.30194360097249,543.9461669921875,43.0493278503418C543.3990757242839,49.7967120997111,543.3243495686849,61.599403928120935,548.4304809570312,78.92376708984375C553.5366123453776,96.24813025156656,561.5814573160807,110.19730372111003,569.0582885742188,128.25111389160156C576.5351198323568,146.3049240620931,579.7309315999349,155.67712295532226,585.2017822265625,167.71299743652344C590.6726328531901,179.7488719177246,592.8639605712891,182.5201705423991,595.964111328125,187.44393920898438C599.0642620849609,192.36770787556966,600.81314453125,199.22272171020506,600.4484252929688,191.92825317382812C600.0837060546875,184.63378463745119,598.7294502766927,165.97608123779298,594.17041015625,151.5695037841797C589.6113700358073,137.1629263305664,587.8744476318359,129.46487157185874,578.0269165039062,121.07623291015625C568.1793853759766,112.68759424845378,562.8819319661459,116.33184104919434,545.7399291992188,110.31390380859375C528.5979264322916,104.29596656799316,508.1285685221354,96.76831125895183,493.72198486328125,91.47982025146484C479.3154012044271,86.19132924397786,471.24064880371094,81.38714360555014,474.88787841796875,84.304931640625C478.53510803222656,87.22271967569986,499.07621704101564,101.27055425008137,511.6591796875,105.82959747314453C524.2421423339844,110.38864069620769,524.9177895100911,107.27354075113932,536.7713012695312,106.72645568847656C548.6248130289714,106.1793706258138,557.3721765136719,105.50971661885579,569.9551391601562,103.1390151977539C582.5381018066406,100.76831377665202,588.0777421061198,98.7145026397705,598.6547241210938,95.06726837158203C609.2317061360677,91.42003410339356,612.3079119873047,91.21973472595215,621.9730834960938,85.20179748535156C631.6382550048828,79.18386024475097,640.8998634847005,69.66517659505209,646.1883544921875,65.47085571289062C651.4768454996745,61.27653483072917,647.6173364257812,64.75635258992513,647.9820556640625,64.57398986816406" fill="none" stroke-width="7" stroke="url(&quot;#SvgjsLinearGradient1003&quot;)" stroke-linecap="round" stroke-opacity="0.73" stroke-dasharray="0 7"></path><defs><linearGradient id="SvgjsLinearGradient1003"><stop stop-color="#d3adf7" offset="0"></stop><stop stop-color=" #008B78" offset="1"></stop></linearGradient></defs></svg>